<svg height="1118" width="720" xmlns="http://www.w3.org/2000/svg">
<rect height="1118" fill="#555" width="720"></rect>
<text fill="#7f7" font-family="Courier New" font-size="12" xml:space="preserve">
<tspan x="10" y="26">6 megabytes installed</tspan>
<tspan x="10" y="42"></tspan>
<tspan x="10" y="58">node_modules</tspan>
<tspan x="10" y="74">└─┬ youtube-node@1.3.0 </tspan>
<tspan x="10" y="90">  ├── colors@1.0.3 </tspan>
<tspan x="10" y="106">  ├─┬ prompt@0.2.14 </tspan>
<tspan x="10" y="122">  │ ├── pkginfo@0.4.0 </tspan>
<tspan x="10" y="138">  │ ├─┬ read@1.0.7 </tspan>
<tspan x="10" y="154">  │ │ └── mute-stream@0.0.7 </tspan>
<tspan x="10" y="170">  │ ├── revalidator@0.1.8 </tspan>
<tspan x="10" y="186">  │ ├─┬ utile@0.2.1 </tspan>
<tspan x="10" y="202">  │ │ ├── async@0.2.10 </tspan>
<tspan x="10" y="218">  │ │ ├── deep-equal@1.0.1 </tspan>
<tspan x="10" y="234">  │ │ ├── i@0.3.5 </tspan>
<tspan x="10" y="250">  │ │ ├─┬ mkdirp@0.5.1 </tspan>
<tspan x="10" y="266">  │ │ │ └── minimist@0.0.8 </tspan>
<tspan x="10" y="282">  │ │ ├── ncp@0.4.2 </tspan>
<tspan x="10" y="298">  │ │ └─┬ rimraf@2.6.1 </tspan>
<tspan x="10" y="314">  │ │   └─┬ glob@7.1.1 </tspan>
<tspan x="10" y="330">  │ │     ├── fs.realpath@1.0.0 </tspan>
<tspan x="10" y="346">  │ │     ├─┬ inflight@1.0.6 </tspan>
<tspan x="10" y="362">  │ │     │ └── wrappy@1.0.2 </tspan>
<tspan x="10" y="378">  │ │     ├─┬ minimatch@3.0.3 </tspan>
<tspan x="10" y="394">  │ │     │ └─┬ brace-expansion@1.1.7 </tspan>
<tspan x="10" y="410">  │ │     │   ├── balanced-match@0.4.2 </tspan>
<tspan x="10" y="426">  │ │     │   └── concat-map@0.0.1 </tspan>
<tspan x="10" y="442">  │ │     ├── once@1.4.0 </tspan>
<tspan x="10" y="458">  │ │     └── path-is-absolute@1.0.1 </tspan>
<tspan x="10" y="474">  │ └─┬ winston@0.8.3 </tspan>
<tspan x="10" y="490">  │   ├── colors@0.6.2 </tspan>
<tspan x="10" y="506">  │   ├── cycle@1.0.3 </tspan>
<tspan x="10" y="522">  │   ├── eyes@0.1.8 </tspan>
<tspan x="10" y="538">  │   ├── pkginfo@0.3.1 </tspan>
<tspan x="10" y="554">  │   └── stack-trace@0.0.9 </tspan>
<tspan x="10" y="570">  └─┬ request@2.53.0 </tspan>
<tspan x="10" y="586">    ├── aws-sign2@0.5.0 </tspan>
<tspan x="10" y="602">    ├─┬ bl@0.9.5 </tspan>
<tspan x="10" y="618">    │ └─┬ readable-stream@1.0.34 </tspan>
<tspan x="10" y="634">    │   ├── core-util-is@1.0.2 </tspan>
<tspan x="10" y="650">    │   ├── inherits@2.0.3 </tspan>
<tspan x="10" y="666">    │   ├── isarray@0.0.1 </tspan>
<tspan x="10" y="682">    │   └── string_decoder@0.10.31 </tspan>
<tspan x="10" y="698">    ├── caseless@0.9.0 </tspan>
<tspan x="10" y="714">    ├─┬ combined-stream@0.0.7 </tspan>
<tspan x="10" y="730">    │ └── delayed-stream@0.0.5 </tspan>
<tspan x="10" y="746">    ├── forever-agent@0.5.2 </tspan>
<tspan x="10" y="762">    ├─┬ form-data@0.2.0 </tspan>
<tspan x="10" y="778">    │ └── async@0.9.2 </tspan>
<tspan x="10" y="794">    ├─┬ hawk@2.3.1 </tspan>
<tspan x="10" y="810">    │ ├── boom@2.10.1 </tspan>
<tspan x="10" y="826">    │ ├── cryptiles@2.0.5 </tspan>
<tspan x="10" y="842">    │ ├── hoek@2.16.3 </tspan>
<tspan x="10" y="858">    │ └── sntp@1.0.9 </tspan>
<tspan x="10" y="874">    ├─┬ http-signature@0.10.1 </tspan>
<tspan x="10" y="890">    │ ├── asn1@0.1.11 </tspan>
<tspan x="10" y="906">    │ ├── assert-plus@0.1.5 </tspan>
<tspan x="10" y="922">    │ └── ctype@0.5.3 </tspan>
<tspan x="10" y="938">    ├── isstream@0.1.2 </tspan>
<tspan x="10" y="954">    ├── json-stringify-safe@5.0.1 </tspan>
<tspan x="10" y="970">    ├─┬ mime-types@2.0.14 </tspan>
<tspan x="10" y="986">    │ └── mime-db@1.12.0 </tspan>
<tspan x="10" y="1002">    ├── node-uuid@1.4.8 </tspan>
<tspan x="10" y="1018">    ├── oauth-sign@0.6.0 </tspan>
<tspan x="10" y="1034">    ├── qs@2.3.3 </tspan>
<tspan x="10" y="1050">    ├── stringstream@0.0.5 </tspan>
<tspan x="10" y="1066">    ├─┬ tough-cookie@2.3.2 </tspan>
<tspan x="10" y="1082">    │ └── punycode@1.4.1 </tspan>
<tspan x="10" y="1098">    └── tunnel-agent@0.4.3</tspan>
</text>
</svg>
